<?xml version="1.0" encoding="UTF-8" standalone="no"?>
<!-- Created with Inkscape (http://www.inkscape.org/) -->

<svg
   width="240mm"
   height="120mm"
   viewBox="0 0 240 120"
   version="1.1"
   id="svg8"
   inkscape:version="1.4 (1:1.4+202410161351+e7c3feb100)"
   sodipodi:docname="infinite-rational-integral-with-power.svg"
   xmlns:inkscape="http://www.inkscape.org/namespaces/inkscape"
   xmlns:sodipodi="http://sodipodi.sourceforge.net/DTD/sodipodi-0.dtd"
   xmlns="http://www.w3.org/2000/svg"
   xmlns:svg="http://www.w3.org/2000/svg"
   xmlns:rdf="http://www.w3.org/1999/02/22-rdf-syntax-ns#"
   xmlns:cc="http://creativecommons.org/ns#"
   xmlns:dc="http://purl.org/dc/elements/1.1/">
  <defs
     id="defs2" />
  <sodipodi:namedview
     id="base"
     pagecolor="#ffffff"
     bordercolor="#666666"
     borderopacity="1.0"
     inkscape:pageopacity="0.0"
     inkscape:pageshadow="2"
     inkscape:zoom="0.70312851"
     inkscape:cx="470.7532"
     inkscape:cy="251.02097"
     inkscape:document-units="mm"
     inkscape:current-layer="layer1"
     showgrid="false"
     showborder="true"
     width="200mm"
     showguides="true"
     inkscape:guide-bbox="true"
     inkscape:window-width="1600"
     inkscape:window-height="900"
     inkscape:window-x="50"
     inkscape:window-y="50"
     inkscape:window-maximized="1"
     inkscape:showpageshadow="2"
     inkscape:pagecheckerboard="0"
     inkscape:deskcolor="#d1d1d1">
    <inkscape:grid
       type="xygrid"
       id="grid815"
       units="mm"
       spacingx="10"
       spacingy="10"
       empspacing="4"
       dotted="false"
       originx="0"
       originy="0" />
  </sodipodi:namedview>
  <metadata
     id="metadata5">
    <rdf:RDF>
      <cc:Work
         rdf:about="">
        <dc:format>image/svg+xml</dc:format>
        <dc:type
           rdf:resource="http://purl.org/dc/dcmitype/StillImage" />
        <dc:title />
      </cc:Work>
    </rdf:RDF>
  </metadata>
  <g
     inkscape:label="Layer 1"
     inkscape:groupmode="layer"
     id="layer1"
     transform="translate(0,-177)">
    <path
       id="path4"
       style="fill:none;fill-opacity:1;stroke:#000000;stroke-width:0.280882;stroke-dasharray:none;stroke-opacity:1;marker-start:none;marker-end:none"
       d="m 77.151322,260.38562 h 37.416538 m -93.542468,0 h 37.41657 m -37.416569,0 c 10e-7,-25.83105 20.940203,-46.77125 46.771249,-46.77125 25.83105,0 46.771218,20.9402 46.771218,46.77125 m -56.125898,0 c 0,-5.16645 4.18824,-9.35468 9.35468,-9.35468 5.16644,0 9.35468,4.18823 9.35468,9.35468" />
    <path
       id="path5"
       style="fill:none;fill-opacity:1;stroke:#000000;stroke-width:0.280882;stroke-dasharray:none;stroke-opacity:1;marker-start:none;marker-end:none"
       d="m 180.78583,195.43867 a 43.462002,43.462002 0 0 0 -43.46195,43.46194 43.462002,43.462002 0 0 0 43.46195,43.46195 43.462002,43.462002 0 0 0 43.31415,-41.3923 h -37.26284 a 6.397018,6.397018 0 0 1 -6.05131,4.32738 6.397018,6.397018 0 0 1 -6.39702,-6.39703 6.397018,6.397018 0 0 1 6.39702,-6.39702 6.397018,6.397018 0 0 1 6.05131,4.32738 h 37.35999 a 43.462002,43.462002 0 0 0 -43.4113,-41.3923 z" />
  </g>
</svg>
